<?xml version="1.0" encoding="utf-8"?>
<!-- Generator: Adobe Illustrator 18.1.1, SVG Export Plug-In . SVG Version: 6.00 Build 0)  -->
<!DOCTYPE svg PUBLIC "-//W3C//DTD SVG 1.1//EN" "http://www.w3.org/Graphics/SVG/1.1/DTD/svg11.dtd">
<svg version="1.1" id="Layer_1" xmlns="http://www.w3.org/2000/svg" xmlns:xlink="http://www.w3.org/1999/xlink" x="0px" y="0px"
	 viewBox="0 0 46.3 13.5" enable-background="new 0 0 46.3 13.5" xml:space="preserve">
<path fill="#F27C61" d="M27,2.3L27,2.3C27,1,26,0,24.8,0H2.2C1,0,0,1,0,2.2v0c0,1.2,1,2.2,2.2,2.2h14.8c1.2,0,2.2,1,2.2,2.2v0
	c0,1.2-1,2.2-2.2,2.2h-9c-1.2,0-2.2,1-2.2,2.2v0c0,1.2,1,2.2,2.2,2.2h22.5c1.2,0,2.2-1,2.2-2.2v0c0-1.2,1-2.2,2.2-2.2h9
	c1.2,0,2.2-1,2.2-2.2v0c0-1.2-1-2.2-2.2-2.2H29.2C28,4.5,27,3.5,27,2.3z"/>
</svg>
