<?xml version="1.0" encoding="utf-8"?>
<!-- Generator: Adobe Illustrator 18.1.1, SVG Export Plug-In . SVG Version: 6.00 Build 0)  -->
<!DOCTYPE svg PUBLIC "-//W3C//DTD SVG 1.1//EN" "http://www.w3.org/Graphics/SVG/1.1/DTD/svg11.dtd">
<svg version="1.1" id="Layer_1" xmlns="http://www.w3.org/2000/svg" xmlns:xlink="http://www.w3.org/1999/xlink" x="0px" y="0px"
	 viewBox="0 0 40.5 31.5" enable-background="new 0 0 40.5 31.5" xml:space="preserve">
<path fill="#F27C61" d="M40.5,6.8L40.5,6.8c0-1.2-1-2.3-2.2-2.3h0c-1.2,0-2.2-1-2.2-2.2v0C36,1,35,0,33.8,0H11.3C10,0,9,1,9,2.2v0
	c0,1.2,1,2.2,2.2,2.2h0c1.2,0,2.2,1,2.2,2.2v0c0,1.2-1,2.2-2.2,2.2h-9C1,9,0,10,0,11.2v0c0,1.2,1,2.2,2.2,2.2h9c1.2,0,2.2,1,2.2,2.2
	v0c0,1.2-1,2.2-2.2,2.2h0C10,18,9,19,9,20.2v0c0,1.2,1,2.2,2.2,2.2h0c1.2,0,2.2,1,2.2,2.2v0c0,1.2-1,2.2-2.2,2.2h-9
	C1,27,0,28,0,29.2v0c0,1.2,1,2.2,2.2,2.2h22.5c1.2,0,2.2-1,2.2-2.2v0c0-1.2,1-2.2,2.2-2.2h9c1.2,0,2.2-1,2.2-2.2v0
	c0-1.2-1-2.2-2.2-2.2h0c-1.2,0-2.2-1-2.2-2.2v0c0-1.2,1-2.2,2.2-2.2h0c1.2,0,2.2-1,2.2-2.2v0c0-1.2-1-2.2-2.2-2.2h-9
	c-1.2,0-2.2-1-2.2-2.2v0C27,10,28,9,29.3,9h9C39.5,9,40.5,8,40.5,6.8z"/>
</svg>
