<?xml version="1.0" encoding="utf-8"?>
<!-- Generator: Adobe Illustrator 18.1.1, SVG Export Plug-In . SVG Version: 6.00 Build 0)  -->
<!DOCTYPE svg PUBLIC "-//W3C//DTD SVG 1.1//EN" "http://www.w3.org/Graphics/SVG/1.1/DTD/svg11.dtd">
<svg version="1.1" id="Layer_1" xmlns="http://www.w3.org/2000/svg" xmlns:xlink="http://www.w3.org/1999/xlink" x="0px" y="0px"
	 viewBox="0 0 198.6 299.3" enable-background="new 0 0 198.6 299.3" xml:space="preserve">
<g>
	<g id="_x32_3rg43.tif">
		<g>
			<path fill="#FFFFFF" d="M157.4,119.3c3.4,1.8,6.6,3.7,10,5.4c1,0.5,2.3,0.5,3.4,0.7c1.4,0.3,4,0.4,4.1,0.9c0.2,1.6-0.6,3.3-0.7,5
				c-0.2,1.9-0.2,3.8-0.1,5.8c0.1,2.1,1.2,4.4,0.7,6.4c-1.2,4.9,1.1,10.4,6.2,13c0.8-1.1,1.7-2.2,2.5-3.2c5.7,0.3,8.1,3.2,9.3,8.6
				c1.1,5,3.9,9.6,5.7,14.5c0.3,0.9-0.1,2.7-0.8,3.4c-4.3,4.4-8.8,8.7-13.7,13.5c-0.5-2.8-0.9-4.8-1.5-7.9c-1.2,1.9-2.1,2.6-2.1,3.3
				c-0.3,3.7-1.9,5-5.7,3.7c-0.9-0.3-3.3,1.1-3.6,2.1c-0.8,2.4-0.7,5.1-0.9,7.7c-1.7-2.1-2.8-6.1-6.8-2.3c-0.5,0.5-3.5-1.7-6.7-3.4
				c3,9.8-6,10-9.8,15.3c-1.3-3.1-2.4-5.9-3.7-9.2c-2,0.1-4.3,0.3-7.6,0.5c1.7,2.2,2.5,3.4,3.4,4.5c3.5,4.1,3.4,5.1-1.2,7.8
				c-0.4,0.3-1.2,0.5-1.2,0.7c0,3.4-1.4,4.4-4.4,2.7c-3.1-1.8-3.1-4.5-2.1-7.4c0.4-1.2,1.2-2.3,2.5-4.6c-3.4,0.5-8,0.2-8.3,1.3
				c-1,3.2-0.4,6.9-0.4,10.3c-4.3-1.8-8.7-3.7-14-5.8c0.1-1.8,0.3-4.9,0.4-8.3c-2.8,0.9-5.5,1.7-8.2,2.6c0.5,0.3,1,0.7,1.5,1
				c-1,3.3-1.9,6.7-3,9.9c-1,3-2.3,5.9-3.1,8.9c-0.3,1.1,0.5,2.4,0.9,4.4c-1.9,2.2-4.4,5.3-7.2,8.1c-0.7,0.6-2.7,0.5-3.7,0
				c-3.8-1.7-6.6-2.5-8.5,2.8c-0.8,2.2-3.9,3.8-6.2,5.3c-4,2.6-8.3,4.8-12.8,7.4c-1.8-4-4.9-3.8-8.8-0.3c0.1-3,0.2-5.1,0.3-7.4
				c-5.7,2.4-9.8,5.7-11.5,11.9c1.2,0,2,0,2.9,0c-0.9,4.2-1.4,8.4-7.1,8.9c-0.9,0.1-2.5,2.5-2.4,3.8c0.4,5.2-2.2,7.7-6.6,9.7
				c-1.7,0.8-3,3.3-3.8,5.3c-1.2,3-1.6,6.4-2.9,9.3c-0.6,1.4-3.3,3.5-3.9,3.1c-2.1-1.2-5.6-3.7-5.3-4.9c1.7-6.1-3.2-8.6-5.5-12.5
				c-0.9-1.5-2-3.2-2-4.8c-0.2-14.3-0.1-28.6-0.4-42.8c-0.4-16.5-1-33-1.6-49.4C1,173.7,0.8,162.5,0,151.4c-0.2-3.3,0.7-5.1,3.6-6
				c3.4-1,3.6,1.8,4.6,3.9c0.4,0.8,1.1,1.5,2.7,3.6c1.1-5.6,2-9.9,2.8-14.2c2.6,1.1,4.8,2,8,3.3c-0.7-2.2-0.7-3.6-1.4-4.2
				c-4.6-3.9-2.1-7.5,0.6-10.7c1.7-2,3.9-3.6,6-5.1c3-2.1,6.9-3,6-8.3c-0.2-1.2,2.6-3.1,4.2-4.5c2.5-2.1,3-3.9,1.5-7.2
				c-1.1-2.4-0.2-5.8,0-8.8c0.1-1.1,1.5-2.3,1.2-3.1C37.2,82.4,42,78,46.4,73c2-2.3,3.3-5.8,3.6-8.8c0.7-8.2,3.5-15.2,8.4-22
				c8.7-12,16.8-24.4,25.1-36.7c4.6-6.7,4.8-6.8,12.1-2.9c0,2.6-0.2,5.1,0,7.5c0.5,5.8,5.7,8.5,11.1,6.4c5.8-2.3,11.9-3.8,17.9-5.8
				c0.7-0.2,1.4-0.9,1.8-1.5c2.7-3.7,6.7-4.5,10.3-1.2c6,5.4,11.7,11.1,17.4,16.9c0.9,0.9,1,2.8,1.1,4.2c0.8,22,1.6,43.9,2.2,65.9
				C157.6,103.2,157.4,111.4,157.4,119.3z"/>
			<path fill="#FFFFFF" d="M110.3,223.5c-0.8,3.6,4.4,6.6-0.3,9.9c-0.5,0.4-3-1.1-3.7-2.2C103.7,227.4,105,224.8,110.3,223.5z"/>
			<path fill="#FFFFFF" d="M121.2,220.8c-1.7,1.8-2.9,3.1-4.1,4.4c-0.7-1.1-2-2.4-1.8-3.4c0.3-1.5,1.7-2.8,2.6-4.1
				C118.8,218.6,119.8,219.5,121.2,220.8z"/>
		</g>
	</g>
	<g>
		<path fill="#EF4723" d="M40.3,225.9c-3.9-6.9-4.1-14.2-0.4-16.3c3.7-2.1,9.8,1.9,13.7,8.8s10.5,25.6,6.8,27.7
			S44.2,232.9,40.3,225.9z"/>
		<path fill="#EF4723" d="M53.5,218.5c0.2-8,3.8-14.3,8-14.2c4.2,0.1,7.5,6.6,7.3,14.6c-0.2,8-4.1,27.4-8.3,27.3
			S53.3,226.4,53.5,218.5z"/>
	</g>
</g>
</svg>
