<?xml version="1.0" encoding="utf-8"?>
<!-- Generator: Adobe Illustrator 18.1.1, SVG Export Plug-In . SVG Version: 6.00 Build 0)  -->
<!DOCTYPE svg PUBLIC "-//W3C//DTD SVG 1.1//EN" "http://www.w3.org/Graphics/SVG/1.1/DTD/svg11.dtd">
<svg version="1.1" id="Layer_1" xmlns="http://www.w3.org/2000/svg" xmlns:xlink="http://www.w3.org/1999/xlink" x="0px" y="0px"
	 viewBox="0 0 152.1 38.2" enable-background="new 0 0 152.1 38.2" xml:space="preserve">
<g>
	<g>
		<g>
			
				<line fill="none" stroke="#282828" stroke-width="1.5" stroke-linecap="round" stroke-linejoin="round" stroke-miterlimit="10" x1="55.4" y1="32.9" x2="61.9" y2="2.5"/>
			
				<line fill="none" stroke="#282828" stroke-width="1.5" stroke-linecap="round" stroke-linejoin="round" stroke-miterlimit="10" x1="62.7" y1="2.5" x2="56.2" y2="32.9"/>
			
				<line fill="none" stroke="#282828" stroke-width="1.5" stroke-linecap="round" stroke-linejoin="round" stroke-miterlimit="10" x1="72.6" y1="32.9" x2="77.8" y2="2.5"/>
			
				<line fill="none" stroke="#282828" stroke-width="1.5" stroke-linecap="round" stroke-linejoin="round" stroke-miterlimit="10" x1="78.6" y1="2.5" x2="73.5" y2="32.9"/>
			
				<polyline fill="none" stroke="#282828" stroke-width="1.5" stroke-linecap="round" stroke-linejoin="round" stroke-miterlimit="10" points="
				60.5,2.4 62.7,2.4 66.8,32.9 			"/>
			
				<polyline fill="none" stroke="#282828" stroke-width="1.5" stroke-linecap="round" stroke-linejoin="round" stroke-miterlimit="10" points="
				80,2.4 77.8,2.4 62.7,32.9 			"/>
			
				<line fill="none" stroke="#282828" stroke-width="1.5" stroke-linecap="round" stroke-linejoin="round" stroke-miterlimit="10" x1="54.7" y1="32.9" x2="56.9" y2="32.9"/>
			
				<line fill="none" stroke="#282828" stroke-width="1.5" stroke-linecap="round" stroke-linejoin="round" stroke-miterlimit="10" x1="71.8" y1="32.9" x2="74.1" y2="32.9"/>
			
				<line fill="none" stroke="#282828" stroke-width="1.5" stroke-linecap="round" stroke-linejoin="round" stroke-miterlimit="10" x1="62.1" y1="32.9" x2="63.4" y2="32.9"/>
			
				<line fill="none" stroke="#282828" stroke-width="1.5" stroke-linecap="round" stroke-linejoin="round" stroke-miterlimit="10" x1="66.1" y1="32.9" x2="67.4" y2="32.9"/>
		</g>
		<g>
			<g>
				<g>
					
						<path fill="none" stroke="#282828" stroke-width="1.5" stroke-linecap="round" stroke-linejoin="round" stroke-miterlimit="10" d="
						M140,2.4c0,0,0,0-2.9,13.6c0,0-3.2,13.3,1.6,16.5c0.6,0.4,1.5,0.5,2.1,0.1c1.7-0.9,4.8-4.4,7.4-17.2l2.3-13.1"/>
					
						<path fill="none" stroke="#282828" stroke-width="1.5" stroke-linecap="round" stroke-linejoin="round" stroke-miterlimit="10" d="
						M149.9,2.4c0,0-0.3,1.9-2.3,12.6c0,0-3,18.7-9.2,17.2"/>
				</g>
				
					<line fill="none" stroke="#282828" stroke-width="1.5" stroke-linecap="round" stroke-linejoin="round" stroke-miterlimit="10" x1="139" y1="2.4" x2="141.2" y2="2.4"/>
			</g>
			
				<line fill="none" stroke="#282828" stroke-width="1.5" stroke-linecap="round" stroke-linejoin="round" stroke-miterlimit="10" x1="149.2" y1="2.4" x2="151.4" y2="2.4"/>
		</g>
		<g>
			
				<line fill="none" stroke="#282828" stroke-width="1.5" stroke-linecap="round" stroke-linejoin="round" stroke-miterlimit="10" x1="86.1" y1="32.8" x2="92.9" y2="2.5"/>
			
				<line fill="none" stroke="#282828" stroke-width="1.5" stroke-linecap="round" stroke-linejoin="round" stroke-miterlimit="10" x1="93.7" y1="2.5" x2="86.9" y2="32.8"/>
			
				<polyline fill="none" stroke="#282828" stroke-width="1.5" stroke-linecap="round" stroke-linejoin="round" stroke-miterlimit="10" points="
				91.3,2.4 100.9,2.5 100.9,3.1 			"/>
			
				<polyline fill="none" stroke="#282828" stroke-width="1.5" stroke-linecap="round" stroke-linejoin="round" stroke-miterlimit="10" points="
				84.7,32.8 95.8,32.9 95.8,32 			"/>
			
				<line fill="none" stroke="#282828" stroke-width="1.5" stroke-linecap="round" stroke-linejoin="round" stroke-miterlimit="10" x1="90.3" y1="17.9" x2="94.3" y2="17.9"/>
			
				<line fill="none" stroke="#282828" stroke-width="1.5" stroke-linecap="round" stroke-linejoin="round" stroke-miterlimit="10" x1="94.3" y1="16.8" x2="94.3" y2="19.1"/>
		</g>
		<g>
			
				<polyline fill="none" stroke="#282828" stroke-width="1.5" stroke-linecap="round" stroke-linejoin="round" stroke-miterlimit="10" points="
				112.5,4.6 122.7,32.9 123.6,32.9 112.9,2.6 107.5,32.9 			"/>
			
				<line fill="none" stroke="#282828" stroke-width="1.5" stroke-linecap="round" stroke-linejoin="round" stroke-miterlimit="10" x1="129.1" y1="2.6" x2="123.6" y2="32.9"/>
		</g>
	</g>
	<g>
		<g>
			<g>
				<path fill="#FFFFFF" d="M33.3,11.7c-2.1,1.7-13.2,6.5-13.2,6.5s7.1-9.8,9.2-11.5s4.8-2,5.9-0.6S35.4,10,33.3,11.7z"/>
				<path fill="#FFFFFF" d="M23.6,3.9c-1.2,2.4-3.5,14.3-3.5,14.3s8-9,9.2-11.5c1.2-2.4,0.9-5.1-0.7-5.8S24.8,1.5,23.6,3.9z"/>
			</g>
			<g>
				<path fill="#FFFFFF" d="M30.5,29.3c-2.3-1.5-10.3-10.5-10.3-10.5S31.7,22.5,34,24c2.3,1.5,3.3,3.9,2.4,5.4
					C35.4,30.8,32.7,30.8,30.5,29.3z"/>
				<path fill="#FFFFFF" d="M34.9,17.7c-2.7-0.4-14.7,1.1-14.7,1.1s11,4.8,13.7,5.2c2.7,0.4,5.1-0.7,5.4-2.4
					C39.6,19.8,37.6,18.1,34.9,17.7z"/>
			</g>
			<g>
				<path fill="#FFFFFF" d="M12.9,32.1c0.7-2.6,6.9-13,6.9-13s0,12.1-0.7,14.7c-0.7,2.6-2.7,4.4-4.4,3.9
					C12.9,37.2,12.2,34.7,12.9,32.1z"/>
				<path fill="#FFFFFF" d="M25.3,32.7c-0.5-2.7-5.5-13.6-5.5-13.6s-1.2,12-0.7,14.7c0.5,2.7,2.2,4.6,4,4.3
					C24.7,37.8,25.7,35.4,25.3,32.7z"/>
			</g>
			<g>
				<path fill="#FFFFFF" d="M4.8,16.2c2.7-0.1,14.5,2.5,14.5,2.5S7.8,22.5,5.1,22.6s-5-1.2-5.1-2.9S2.1,16.4,4.8,16.2z"/>
				<path fill="#FFFFFF" d="M8,28.2c2.4-1.3,11.2-9.5,11.2-9.5S7.5,21.3,5.1,22.6c-2.4,1.3-3.7,3.6-2.9,5.1C3,29.2,5.6,29.5,8,28.2z
					"/>
			</g>
			<g>
				<path fill="#FFFFFF" d="M17.4,3.6c1,2.6,2.1,14.6,2.1,14.6s-7.1-9.8-8.1-12.3S11,0.8,12.7,0.1S16.4,1.1,17.4,3.6z"/>
				<path fill="#FFFFFF" d="M7,10.4c2,1.9,12.5,7.8,12.5,7.8s-6.1-10.4-8-12.3S6.9,3.4,5.7,4.7S5,8.5,7,10.4z"/>
			</g>
		</g>
		<circle fill="#062E41" cx="19.4" cy="18.3" r="3.3"/>
	</g>
</g>
</svg>
