<?xml version="1.0" encoding="utf-8"?>
<!-- Generator: Adobe Illustrator 18.1.1, SVG Export Plug-In . SVG Version: 6.00 Build 0)  -->
<!DOCTYPE svg PUBLIC "-//W3C//DTD SVG 1.1//EN" "http://www.w3.org/Graphics/SVG/1.1/DTD/svg11.dtd">
<svg version="1.1" id="Layer_1" xmlns="http://www.w3.org/2000/svg" xmlns:xlink="http://www.w3.org/1999/xlink" x="0px" y="0px"
	 viewBox="0 0 59.7 57.9" enable-background="new 0 0 59.7 57.9" xml:space="preserve">
<g>
	<g>
		<g>
			<path fill="#FFFFFF" d="M50.5,17.8c-3.2,2.6-20,9.8-20,9.8s10.7-14.8,14-17.4s7.2-3,8.9-0.9C55,11.4,53.7,15.2,50.5,17.8z"/>
			<path fill="#FFFFFF" d="M35.8,6c-1.8,3.7-5.3,21.7-5.3,21.7s12.2-13.7,14-17.4s1.4-7.7-1-8.9S37.6,2.3,35.8,6z"/>
		</g>
		<g>
			<path fill="#FFFFFF" d="M46.2,44.5c-3.5-2.3-15.6-16-15.6-16s17.4,5.6,20.9,7.9c3.5,2.3,5.1,5.9,3.6,8.2
				C53.7,46.8,49.7,46.8,46.2,44.5z"/>
			<path fill="#FFFFFF" d="M52.9,26.9c-4.1-0.6-22.3,1.6-22.3,1.6s16.7,7.3,20.8,7.9s7.7-1.1,8.1-3.7S57,27.5,52.9,26.9z"/>
		</g>
		<g>
			<path fill="#FFFFFF" d="M19.5,48.7c1.1-4,10.4-19.7,10.4-19.7s0,18.3-1.1,22.3s-4.1,6.7-6.6,6C19.6,56.5,18.4,52.7,19.5,48.7z"/>
			<path fill="#FFFFFF" d="M38.3,49.6C37.6,45.5,29.9,29,29.9,29s-1.8,18.2-1.1,22.3c0.7,4.1,3.4,7,6,6.6
				C37.5,57.4,39,53.7,38.3,49.6z"/>
		</g>
		<g>
			<path fill="#FFFFFF" d="M7.3,24.6c4.1-0.2,22,3.8,22,3.8s-17.4,5.7-21.5,5.9S0.1,32.5,0,29.8S3.1,24.8,7.3,24.6z"/>
			<path fill="#FFFFFF" d="M12.2,42.8c3.7-1.9,17.1-14.4,17.1-14.4s-17.9,3.9-21.5,5.8S2.1,39.6,3.3,42S8.5,44.7,12.2,42.8z"/>
		</g>
		<g>
			<path fill="#FFFFFF" d="M26.4,5.5c1.5,3.9,3.2,22.1,3.2,22.1S18.8,12.8,17.3,8.9c-1.5-3.9-0.6-7.8,1.9-8.7S24.9,1.6,26.4,5.5z"/>
			<path fill="#FFFFFF" d="M10.6,15.8c3,2.9,19,11.8,19,11.8S20.3,11.8,17.4,8.9s-6.9-3.7-8.7-1.8S7.7,12.9,10.6,15.8z"/>
		</g>
	</g>
	<circle fill="#062E41" cx="29.5" cy="27.8" r="5"/>
</g>
</svg>
