<?xml version="1.0" encoding="utf-8"?>
<!-- Generator: Adobe Illustrator 18.1.1, SVG Export Plug-In . SVG Version: 6.00 Build 0)  -->
<!DOCTYPE svg PUBLIC "-//W3C//DTD SVG 1.1//EN" "http://www.w3.org/Graphics/SVG/1.1/DTD/svg11.dtd">
<svg version="1.1" id="Layer_1" xmlns="http://www.w3.org/2000/svg" xmlns:xlink="http://www.w3.org/1999/xlink" x="0px" y="0px"
	 viewBox="0 0 239.2 116.7" enable-background="new 0 0 239.2 116.7" xml:space="preserve">
<g>
	<g>
		<g>
			<path fill="#506442" d="M74.8,68.7C61.1,47.9,53.4,27.1,50.1,16.5c-0.9-3,1.3-4.4,3.6-2.4c8.4,7.2,24.4,22.5,38.1,43.3
				c19.5,29.6,26.7,59.2,26.7,59.2S94.2,98.3,74.8,68.7z"/>
			<path fill="#506442" d="M63.7,81.8C45.1,65.3,32.2,47.2,26.2,37.9c-1.7-2.6,0.1-4.6,2.9-3.3c10,4.8,29.5,15.3,48.1,31.8
				c26.6,23.5,41.3,50.2,41.3,50.2S90.3,105.3,63.7,81.8z"/>
			<path fill="#506442" d="M87.7,59.5C79.5,36,77.1,14,76.4,2.9c-0.2-3.1,2.3-4,4.1-1.4c6.4,9.1,18.3,27.8,26.5,51.3
				c11.7,33.5,11.6,64,11.6,64S99.4,93,87.7,59.5z"/>
		</g>
	</g>
	<g>
		<g>
			<path fill="#506442" d="M147.2,58.4c14.4-20.4,30.9-35.1,39.5-42.1c2.4-2,4.6-0.4,3.6,2.5c-3.7,10.4-12,31-26.3,51.3
				c-20.4,29-45.3,46.6-45.3,46.6S126.8,87.3,147.2,58.4z"/>
			<path fill="#506442" d="M130.9,52.9c8.5-23.4,20.7-42,27.1-50.9c1.8-2.5,4.3-1.6,4.1,1.5c-0.8,11-3.5,33-12,56.4
				c-12.1,33.3-31.6,56.8-31.6,56.8S118.8,86.2,130.9,52.9z"/>
			<path fill="#506442" d="M160.5,67C179.3,50.8,199,40.5,209,35.8c2.8-1.3,4.5,0.7,2.8,3.3c-6.1,9.2-19.1,27.2-38,43.4
				c-26.8,23.2-55.3,34.2-55.3,34.2S133.6,90.2,160.5,67z"/>
		</g>
	</g>
	<path fill="#EF4723" d="M9.9,22.1c0.9,0.8,3.9,3.4,7.2,6.1c-3.5-2.3-7-4.5-8-5.2c-2.4-1.4-4.8-2-5.3-1.2c-0.5,0.8,1.1,2.6,3.6,4
		c1,0.6,4.6,2.5,8.3,4.5c-3.9-1.6-7.8-3-8.9-3.4C4,26,1.6,26,1.3,26.9C1,27.7,3,29.2,5.7,30.1c1.1,0.4,5,1.5,9,2.7
		c-4.2-0.7-8.2-1.3-9.4-1.4c-2.8-0.3-5.2,0.1-5.3,1c-0.1,0.9,2.1,1.9,4.9,2.2c1.1,0.1,4.3,0.4,7.9,0.6c-3.1,0.2-5.7,0.3-6.7,0.4
		c-2.8,0.3-5,1.2-5,2.1c0.1,0.9,2.4,1.4,5.3,1.1c2.8-0.3,20.1-2.6,20.7-3.6c0.9-0.9,1.7-18.2,1.8-20.9c0-2.8-0.7-5.1-1.6-5.2
		c-0.9,0-1.7,2.3-1.7,5.1c0,1.2,0.1,5.2,0.3,9.4c-0.6-4.2-1.3-8.2-1.5-9.4c-0.6-2.8-1.7-4.9-2.6-4.7c-0.9,0.2-1.2,2.6-0.6,5.4
		c0.2,1.2,1.2,5.1,2.2,9.2c-1.5-4-3-7.8-3.5-8.9c-1.1-2.6-2.7-4.4-3.5-4.1c-0.8,0.4-0.6,2.8,0.5,5.4c0.5,1.1,2.2,4.7,4.1,8.5
		c-2.3-3.6-4.5-7-5.2-8c-1.6-2.3-3.6-3.8-4.3-3.2c-0.7,0.5,0,2.8,1.6,5.1c0.7,1,3.1,4.2,5.7,7.5c-3-3-5.9-5.9-6.8-6.7
		c-2.1-1.9-4.3-2.9-4.9-2.3S7.8,20.2,9.9,22.1z"/>
	<path fill="#EF4723" d="M229.6,23.2c-0.9,0.8-4,3.3-7.3,5.9c3.6-2.3,7.1-4.4,8.1-5c2.5-1.4,4.8-1.9,5.3-1.1
		c0.4,0.8-1.2,2.6-3.7,3.9c-1.1,0.6-4.6,2.4-8.4,4.3c4-1.5,7.8-2.8,9-3.2c2.7-0.8,5.1-0.8,5.4,0c0.3,0.9-1.7,2.2-4.4,3.1
		c-1.2,0.4-5,1.4-9.1,2.5c4.2-0.6,8.2-1.1,9.5-1.2c2.8-0.3,5.2,0.3,5.3,1.2c0.1,0.9-2.1,1.8-5,2.1c-1.1,0.1-4.3,0.3-7.9,0.4
		c3.1,0.2,5.7,0.4,6.7,0.6c2.8,0.3,5,1.3,4.9,2.2c-0.1,0.9-2.5,1.4-5.3,1c-2.8-0.3-20.1-3.1-20.6-4c-0.9-0.9-1.3-18.2-1.3-21
		c0-2.8,0.8-5.1,1.7-5.1c0.9,0,1.6,2.3,1.6,5.2c0,1.2-0.2,5.2-0.5,9.4c0.7-4.2,1.5-8.2,1.7-9.4c0.6-2.8,1.8-4.8,2.7-4.6
		c0.9,0.2,1.1,2.6,0.5,5.4c-0.3,1.2-1.3,5.1-2.4,9.1c1.6-3.9,3.1-7.7,3.7-8.8c1.2-2.6,2.8-4.4,3.6-4c0.8,0.4,0.5,2.8-0.7,5.3
		c-0.5,1.1-2.3,4.7-4.3,8.4c2.3-3.5,4.7-6.9,5.4-7.9c1.7-2.3,3.7-3.7,4.4-3.1c0.7,0.5-0.1,2.8-1.8,5.1c-0.7,1-3.2,4.1-5.9,7.3
		c3-3,6-5.8,6.9-6.6c2.1-1.9,4.3-2.8,4.9-2.2C232.9,19.2,231.7,21.3,229.6,23.2z"/>
</g>
</svg>
