<?xml version="1.0" encoding="utf-8"?>
<!-- Generator: Adobe Illustrator 18.1.1, SVG Export Plug-In . SVG Version: 6.00 Build 0)  -->
<!DOCTYPE svg PUBLIC "-//W3C//DTD SVG 1.1//EN" "http://www.w3.org/Graphics/SVG/1.1/DTD/svg11.dtd">
<svg version="1.1" id="Layer_1" xmlns="http://www.w3.org/2000/svg" xmlns:xlink="http://www.w3.org/1999/xlink" x="0px" y="0px"
	 viewBox="0 0 142.5 159.9" enable-background="new 0 0 142.5 159.9" xml:space="preserve">
<g>
	<g>
		<circle fill="#557EBF" cx="133" cy="62.3" r="9.6"/>
		<circle fill="#557EBF" cx="122.2" cy="32.3" r="9.6"/>
		<circle fill="#557EBF" cx="104.5" cy="13" r="9.6"/>
		<circle fill="#557EBF" cx="76.2" cy="9.6" r="9.6"/>
		<path fill="#557EBF" d="M125,57l-22.8,34.5c-1,1.5-2.9,1.9-4.4,0.9s-1.9-2.9-0.9-4.4l33.3-50.5l-15.9-10.5L84.4,72.2
			c-1,1.5-2.9,1.9-4.4,0.9c-1.5-1-1.9-2.9-0.9-4.4l33.3-50.5L96.5,7.7L63.2,58.2c-1,1.5-2.9,1.9-4.4,0.9c-1.5-1-1.9-2.9-0.9-4.4
			l26.3-39.9L68.2,4.3L24.4,70.7l-1-21.8c0.1-7-5.1-12.8-11.5-13C5.4,35.8,0.1,41.3,0,48.3c0,0,0,37.7,0,53.9s6.1,32.8,28.5,47.6
			c37.1,24.5,59.3-1.9,65-10.5c5.6-8.5,47.4-71.7,47.4-71.7L125,57z"/>
	</g>
</g>
</svg>
