<?xml version="1.0" encoding="utf-8"?>
<!-- Generator: Adobe Illustrator 18.1.1, SVG Export Plug-In . SVG Version: 6.00 Build 0)  -->
<!DOCTYPE svg PUBLIC "-//W3C//DTD SVG 1.1//EN" "http://www.w3.org/Graphics/SVG/1.1/DTD/svg11.dtd">
<svg version="1.1" id="Layer_1" xmlns="http://www.w3.org/2000/svg" xmlns:xlink="http://www.w3.org/1999/xlink" x="0px" y="0px"
	 viewBox="0 0 183.8 162.1" enable-background="new 0 0 183.8 162.1" xml:space="preserve">
<g>
	<line fill="none" stroke="#262626" stroke-width="2" stroke-miterlimit="10" x1="83.9" y1="0.5" x2="0.9" y2="161.6"/>
	<line fill="none" stroke="#262626" stroke-width="2" stroke-miterlimit="10" x1="92.9" y1="0.5" x2="9.9" y2="161.6"/>
	<line fill="none" stroke="#262626" stroke-width="2" stroke-miterlimit="10" x1="101.9" y1="0.5" x2="18.9" y2="161.6"/>
	<line fill="none" stroke="#262626" stroke-width="2" stroke-miterlimit="10" x1="110.9" y1="0.5" x2="27.9" y2="161.6"/>
	<line fill="none" stroke="#262626" stroke-width="2" stroke-miterlimit="10" x1="119.9" y1="0.5" x2="36.9" y2="161.6"/>
	<line fill="none" stroke="#262626" stroke-width="2" stroke-miterlimit="10" x1="128.9" y1="0.5" x2="45.9" y2="161.6"/>
	<line fill="none" stroke="#262626" stroke-width="2" stroke-miterlimit="10" x1="137.9" y1="0.5" x2="54.9" y2="161.6"/>
	<line fill="none" stroke="#262626" stroke-width="2" stroke-miterlimit="10" x1="146.9" y1="0.5" x2="63.9" y2="161.6"/>
	<line fill="none" stroke="#262626" stroke-width="2" stroke-miterlimit="10" x1="155.9" y1="0.5" x2="72.9" y2="161.6"/>
	<line fill="none" stroke="#262626" stroke-width="2" stroke-miterlimit="10" x1="164.9" y1="0.5" x2="81.9" y2="161.6"/>
	<line fill="none" stroke="#262626" stroke-width="2" stroke-miterlimit="10" x1="173.9" y1="0.5" x2="90.9" y2="161.6"/>
	<line fill="none" stroke="#262626" stroke-width="2" stroke-miterlimit="10" x1="182.9" y1="0.5" x2="99.9" y2="161.6"/>
	<line fill="none" stroke="#262626" stroke-width="2" stroke-miterlimit="10" x1="175.3" y1="0.5" x2="107.4" y2="161.6"/>
	<line fill="none" stroke="#262626" stroke-width="2" stroke-miterlimit="10" x1="167.8" y1="0.5" x2="115" y2="161.6"/>
	<line fill="none" stroke="#262626" stroke-width="2" stroke-miterlimit="10" x1="160.2" y1="0.5" x2="122.5" y2="161.6"/>
	<line fill="none" stroke="#262626" stroke-width="2" stroke-miterlimit="10" x1="152.7" y1="0.5" x2="130.1" y2="161.6"/>
	<line fill="none" stroke="#262626" stroke-width="2" stroke-miterlimit="10" x1="145.1" y1="0.5" x2="137.6" y2="161.6"/>
	<line fill="none" stroke="#262626" stroke-width="2" stroke-miterlimit="10" x1="137.6" y1="0.5" x2="145.1" y2="161.6"/>
	<line fill="none" stroke="#262626" stroke-width="2" stroke-miterlimit="10" x1="130.1" y1="0.5" x2="152.7" y2="161.6"/>
	<line fill="none" stroke="#262626" stroke-width="2" stroke-miterlimit="10" x1="122.5" y1="0.5" x2="160.2" y2="161.6"/>
	<line fill="none" stroke="#262626" stroke-width="2" stroke-miterlimit="10" x1="115" y1="0.5" x2="167.8" y2="161.6"/>
	<line fill="none" stroke="#262626" stroke-width="2" stroke-miterlimit="10" x1="107.4" y1="0.5" x2="175.3" y2="161.6"/>
	<line fill="none" stroke="#262626" stroke-width="2" stroke-miterlimit="10" x1="99.9" y1="0.5" x2="182.9" y2="161.6"/>
</g>
</svg>
